<?xml version="1.0" encoding="utf-8"?>
<!-- Generator: Adobe Illustrator 16.0.4, SVG Export Plug-In . SVG Version: 6.00 Build 0)  -->
<!DOCTYPE svg PUBLIC "-//W3C//DTD SVG 1.1//EN" "http://www.w3.org/Graphics/SVG/1.1/DTD/svg11.dtd">
<svg version="1.1" id="Warstwa_1" xmlns="http://www.w3.org/2000/svg" xmlns:xlink="http://www.w3.org/1999/xlink" x="0px" y="0px"
	 width="40px" height="40px" viewBox="0 0 40 40" enable-background="new 0 0 40 40" xml:space="preserve">
<circle fill="#999999" cx="20.083" cy="20.085" r="20"/>
<g>
	<path fill="#FFFFFF" d="M28.285,14.353c-0.194,1.242-0.607,3.679-1.239,7.309c-0.037,0.224-0.138,0.432-0.301,0.625
		c-0.164,0.194-0.326,0.342-0.485,0.447c-0.16,0.104-0.363,0.219-0.608,0.346c-1.875,0.938-4.145,1.265-6.808,0.982
		c-1.845-0.201-3.311-0.718-4.397-1.552c-0.111-0.089-0.206-0.188-0.284-0.295s-0.142-0.238-0.19-0.391
		c-0.048-0.153-0.082-0.28-0.1-0.379c-0.019-0.1-0.041-0.247-0.067-0.441s-0.046-0.323-0.062-0.391
		c-0.066-0.372-0.166-0.93-0.295-1.674c-0.13-0.744-0.234-1.344-0.312-1.802c-0.078-0.458-0.166-1.006-0.262-1.647
		c-0.097-0.639-0.179-1.227-0.246-1.762c0.022-0.194,0.087-0.375,0.195-0.542c0.108-0.167,0.225-0.306,0.352-0.418
		c0.126-0.111,0.293-0.223,0.502-0.335c0.208-0.111,0.379-0.195,0.513-0.251c0.134-0.055,0.312-0.124,0.536-0.207
		c0.93-0.342,2.094-0.58,3.493-0.714c2.82-0.275,5.335-0.089,7.545,0.558c1.153,0.342,1.953,0.797,2.399,1.363
		c0.119,0.148,0.18,0.338,0.184,0.569C28.35,13.98,28.33,14.181,28.285,14.353z M26.265,25.078c-0.06,0.193-0.117,0.478-0.173,0.854
		c-0.056,0.376-0.108,0.688-0.156,0.938c-0.049,0.25-0.154,0.51-0.318,0.781c-0.164,0.271-0.379,0.482-0.647,0.631
		c-0.64,0.357-1.345,0.623-2.115,0.798c-0.771,0.174-1.522,0.256-2.255,0.245c-0.733-0.011-1.482-0.081-2.249-0.206
		c-0.342-0.06-0.646-0.126-0.909-0.202c-0.265-0.074-0.549-0.175-0.854-0.302c-0.305-0.126-0.577-0.287-0.815-0.485
		s-0.432-0.426-0.58-0.687c-0.186-0.714-0.398-1.8-0.636-3.258l0.067-0.179l0.201-0.1c1.659,1.102,3.543,1.651,5.653,1.651
		s3.997-0.55,5.664-1.651c0.156,0.044,0.246,0.129,0.268,0.256c0.022,0.127,0.003,0.295-0.056,0.503
		C26.294,24.873,26.265,25.011,26.265,25.078z M25.629,13.526c-0.149-0.201-0.357-0.366-0.625-0.497
		c-0.268-0.129-0.484-0.211-0.647-0.245c-0.164-0.033-0.428-0.08-0.792-0.139c-2.166-0.35-4.271-0.342-6.317,0.022
		c-0.32,0.052-0.565,0.097-0.737,0.134s-0.375,0.119-0.614,0.246c-0.238,0.126-0.424,0.286-0.558,0.479
		c0.223,0.208,0.506,0.378,0.848,0.508c0.342,0.13,0.616,0.212,0.82,0.245c0.205,0.035,0.53,0.077,0.977,0.129
		c1.696,0.216,3.363,0.22,5,0.011c0.469-0.06,0.802-0.104,0.999-0.134s0.467-0.11,0.809-0.241
		C25.134,13.916,25.413,13.742,25.629,13.526z M22.961,19.576c-0.104-0.796-0.524-1.406-1.261-1.831
		c-0.737-0.423-1.47-0.472-2.199-0.146c-0.469,0.209-0.843,0.538-1.122,0.988c-0.279,0.45-0.407,0.932-0.385,1.445
		c0.03,0.678,0.318,1.254,0.865,1.73c0.547,0.476,1.163,0.685,1.848,0.625c0.677-0.06,1.242-0.372,1.696-0.938
		C22.857,20.886,23.043,20.261,22.961,19.576z M21.723,19.81c0.059,0.469-0.129,0.844-0.564,1.127
		c-0.435,0.283-0.85,0.305-1.245,0.067c-0.29-0.126-0.489-0.342-0.597-0.647c-0.108-0.306-0.11-0.61-0.006-0.915
		c0.104-0.305,0.298-0.521,0.581-0.647c0.268-0.134,0.538-0.179,0.809-0.134c0.271,0.044,0.51,0.177,0.714,0.396
		C21.62,19.276,21.723,19.527,21.723,19.81z"/>
</g>
</svg>
