<?xml version="1.0" encoding="utf-8"?>
<!-- Generator: Adobe Illustrator 16.0.4, SVG Export Plug-In . SVG Version: 6.00 Build 0)  -->
<!DOCTYPE svg PUBLIC "-//W3C//DTD SVG 1.1//EN" "http://www.w3.org/Graphics/SVG/1.1/DTD/svg11.dtd">
<svg version="1.1" id="Warstwa_1" xmlns="http://www.w3.org/2000/svg" xmlns:xlink="http://www.w3.org/1999/xlink" x="0px" y="0px"
	 width="40px" height="40px" viewBox="0 0 40 40" enable-background="new 0 0 40 40" xml:space="preserve">
<circle fill="#999999" cx="20" cy="20" r="20"/>
<g>
	<path fill="#FFFFFF" d="M15.892,12.355c0.008,0.564-0.188,1.036-0.586,1.416c-0.399,0.38-0.924,0.569-1.574,0.569h-0.023
		c-0.634,0-1.145-0.189-1.531-0.569c-0.387-0.379-0.581-0.852-0.581-1.416c0-0.573,0.2-1.047,0.598-1.422
		c0.398-0.376,0.919-0.563,1.561-0.563s1.156,0.188,1.544,0.563C15.686,11.309,15.884,11.782,15.892,12.355z M15.647,15.907v11.502
		h-3.83V15.907H15.647z M29.425,20.816v6.593h-3.818v-6.151c0-0.812-0.157-1.449-0.47-1.909c-0.314-0.46-0.803-0.691-1.469-0.691
		c-0.487,0-0.896,0.134-1.225,0.401c-0.328,0.267-0.574,0.597-0.737,0.992c-0.085,0.232-0.127,0.545-0.127,0.94v6.418H17.76
		c0.016-3.087,0.023-5.59,0.023-7.51c0-1.919-0.005-3.064-0.013-3.436l-0.011-0.557h3.819v1.671h-0.023
		c0.154-0.248,0.313-0.464,0.476-0.65c0.163-0.185,0.381-0.387,0.655-0.604c0.275-0.216,0.612-0.384,1.01-0.505
		c0.398-0.119,0.841-0.18,1.329-0.18c1.323,0,2.387,0.439,3.192,1.317S29.425,19.122,29.425,20.816z"/>
</g>
</svg>
