<?xml version="1.0" encoding="utf-8"?>
<!-- Generator: Adobe Illustrator 16.0.4, SVG Export Plug-In . SVG Version: 6.00 Build 0)  -->
<!DOCTYPE svg PUBLIC "-//W3C//DTD SVG 1.1//EN" "http://www.w3.org/Graphics/SVG/1.1/DTD/svg11.dtd">
<svg version="1.1" id="Warstwa_1" xmlns="http://www.w3.org/2000/svg" xmlns:xlink="http://www.w3.org/1999/xlink" x="0px" y="0px"
	 width="40px" height="40px" viewBox="0 0 40 40" enable-background="new 0 0 40 40" xml:space="preserve">
<circle fill="#999999" cx="20" cy="20" r="20"/>
<g>
	<path fill="#FFFFFF" d="M9.798,12.745h6.365c0.621,0,1.174,0.05,1.66,0.15c0.486,0.1,0.938,0.27,1.355,0.508
		c0.418,0.239,0.739,0.584,0.964,1.035c0.225,0.45,0.337,1,0.337,1.65c0,1.292-0.614,2.232-1.843,2.817
		c0.814,0.229,1.429,0.64,1.843,1.233c0.415,0.592,0.622,1.321,0.622,2.186c0,0.535-0.087,1.022-0.263,1.462
		c-0.175,0.439-0.411,0.809-0.707,1.109c-0.296,0.3-0.648,0.554-1.055,0.76c-0.407,0.208-0.84,0.358-1.297,0.45
		c-0.457,0.094-0.936,0.14-1.436,0.14H9.798V12.745z M12.767,18.199h3.01c0.557,0,0.998-0.131,1.324-0.392
		c0.324-0.261,0.487-0.666,0.487-1.216c0-1.028-0.679-1.542-2.036-1.542h-2.785V18.199z M12.767,23.952h3.171
		c1.464,0,2.196-0.597,2.196-1.789c0-1.286-0.71-1.929-2.132-1.929h-3.235V23.952z M27.07,24.488c0.45,0,0.886-0.114,1.307-0.343
		c0.421-0.229,0.693-0.54,0.814-0.932h2.368c-0.714,2.192-2.239,3.289-4.575,3.289c-1.528,0-2.745-0.472-3.648-1.414
		c-0.903-0.943-1.355-2.183-1.355-3.718c0-1.486,0.466-2.719,1.398-3.702c0.932-0.981,2.134-1.473,3.605-1.473
		c0.986,0,1.845,0.243,2.577,0.729c0.732,0.485,1.278,1.125,1.639,1.917c0.361,0.793,0.541,1.679,0.541,2.658
		c0,0.121-0.007,0.289-0.021,0.503h-7.05c0,0.793,0.205,1.405,0.616,1.837C25.696,24.272,26.292,24.488,27.07,24.488z
		 M29.599,13.655h-5.475v1.329h5.475V13.655z M26.898,18.22c-0.643,0-1.165,0.188-1.564,0.562s-0.621,0.884-0.664,1.527h4.372
		C28.913,18.917,28.198,18.22,26.898,18.22z"/>
</g>
</svg>
