<?xml version="1.0" encoding="utf-8"?>
<!-- Generator: Adobe Illustrator 16.0.4, SVG Export Plug-In . SVG Version: 6.00 Build 0)  -->
<!DOCTYPE svg PUBLIC "-//W3C//DTD SVG 1.1//EN" "http://www.w3.org/Graphics/SVG/1.1/DTD/svg11.dtd">
<svg version="1.1" id="Warstwa_1" xmlns="http://www.w3.org/2000/svg" xmlns:xlink="http://www.w3.org/1999/xlink" x="0px" y="0px"
	 width="40px" height="40px" viewBox="0 0 40 40" enable-background="new 0 0 40 40" xml:space="preserve">
<circle fill="#999999" cx="20" cy="20" r="20"/>
<g>
	<path fill="#FFFFFF" d="M29.824,14.691c-0.499,0.729-1.102,1.351-1.809,1.864c0.007,0.104,0.012,0.261,0.012,0.469
		c0,0.967-0.143,1.933-0.425,2.896c-0.283,0.964-0.713,1.889-1.289,2.773c-0.577,0.886-1.263,1.669-2.059,2.35
		c-0.796,0.682-1.757,1.225-2.88,1.63s-2.326,0.607-3.604,0.607c-2.017,0-3.862-0.539-5.536-1.618
		c0.26,0.03,0.551,0.045,0.871,0.045c1.674,0,3.166-0.514,4.475-1.54c-0.781-0.015-1.48-0.255-2.098-0.72s-1.043-1.059-1.272-1.78
		c0.245,0.037,0.472,0.056,0.681,0.056c0.319,0,0.637-0.041,0.949-0.123c-0.834-0.171-1.523-0.586-2.07-1.244
		s-0.82-1.423-0.82-2.294v-0.044c0.506,0.283,1.049,0.435,1.629,0.457c-0.491-0.327-0.882-0.755-1.172-1.283
		s-0.436-1.101-0.436-1.719c0-0.654,0.164-1.261,0.491-1.818c0.899,1.108,1.996,1.995,3.287,2.661s2.673,1.036,4.146,1.11
		c-0.061-0.283-0.09-0.558-0.09-0.826c0-0.996,0.352-1.847,1.055-2.55s1.553-1.055,2.551-1.055c1.041,0,1.919,0.379,2.634,1.139
		c0.811-0.156,1.573-0.447,2.288-0.87c-0.276,0.855-0.804,1.517-1.585,1.985C28.439,15.176,29.132,14.989,29.824,14.691z"/>
</g>
</svg>
